# xmcd CD database file
#
# Track frame offsets:
#	150
#	13230
#	25990
#	37490
#	51226
#	64817
#	78172
#	91782
#	104161
#	117182
#	130774
#	144524
#	158649
#	171636
#	185414
#	197938
#	211415
#	224076
#	239081
#	253382
#	264355
#	277882
#	293752
#
# Disc length: 4107 seconds
#
# Revision: 0
# Processed by: cddbd v1.4PL0 Copyright (c) Steve Scherf et al.
# Submitted via: CDex 1.50beta10
#
DISCID=6e100917
DTITLE=Sam McGee - Complete Recorded Works 1926-34
DYEAR=1998
DGENRE=Country
TTITLE0=Buck Dancer's Choice
TTITLE1=Franklin Blues, The
TTITLE2=In A Cool Shady Nook
TTITLE3=If I Could Only Blot Out The Past
TTITLE4=Knoxville Blues
TTITLE5=Old Master's Runaway
TTITLE6=Charming Bill
TTITLE7=Flower From My Angel Mother's Grave, A
TTITLE8=C-H-I-C-K-E-N Spells Chicken
TTITLE9=Salty Dog Blues
TTITLE10=Salt Lake City Blues
TTITLE11=Rufus Blossom
TTITLE12=Ragged Jim
TTITLE13=Someone Else May Be There While I'm Gone
TTITLE14=Hannah Won't You Open The Door?
TTITLE15=My Family Has Been A Crooked Set
TTITLE16=Tramp, The
TTITLE17=Easy Rider
TTITLE18=Chevrolet Car
TTITLE19=As Willie And Mary Strolled By The Seashore
TTITLE20=Ship Without A Sail, The
TTITLE21=Brown's Ferry Blues
TTITLE22=Railroad Blues
EXTD=YEAR: 1998
EXTT0=
EXTT1=
EXTT2=
EXTT3=
EXTT4=
EXTT5=
EXTT6=
EXTT7=
EXTT8=
EXTT9=
EXTT10=
EXTT11=
EXTT12=
EXTT13=
EXTT14=
EXTT15=
EXTT16=
EXTT17=
EXTT18=
EXTT19=
EXTT20=
EXTT21=
EXTT22=
PLAYORDER=
